<svg xmlns="http://www.w3.org/2000/svg" viewBox="0 0 512 512" width="512" height="512" role="img" aria-label="LevelAuto">
  <title>LevelAuto</title>
  <rect width="512" height="512" rx="112" fill="#08080a"/>
  <g transform="translate(26 203) scale(0.732)">
    <path fill="#dc2626" d="M69.11 0L86 0L86 4.26L33 101L27.63 113L124.39 113L128.44 115.27L137.4 130L2.67 130L0.52 127.85L9 110Z"/>
    <path fill="#dc2626" d="M619 110L627.48 127.85L625.33 130L490.6 130L499.56 115.27L503.61 113L600.37 113L595 101L542 4.26L542 0L558.89 0Z"/>
    <path fill="#2563eb" d="M314 144.58L246.29 17L113.47 17L105.09 0L256.76 0L312.36 106L315.64 106L371.24 0L522.91 0L514.53 17L381.71 17Z"/>
    <g fill="#f4f4f5">
      <path d="M126.91 52L241.93 52L246.4 57.4L252.37 70L135.57 70L130 61Z"/>
      <path d="M498 61L492.43 70L375.63 70L381.6 57.4L386.07 52L501.09 52Z"/>
      <path d="M148.71 113L274.04 113L282.1 129.43L163 130L157.09 129Z"/>
      <path d="M470.91 129L465 130L345.9 129.43L353.96 113L479.29 113Z"/>
    </g>
  </g>
</svg>
